<?xml version="1.0" encoding="UTF-8"?>
<svg width="206px" height="50px" viewBox="0 0 206 50" version="1.1" xmlns="http://www.w3.org/2000/svg" xmlns:xlink="http://www.w3.org/1999/xlink">
    <title>A3C262D5-2B5C-419D-8BBC-76C6A0B7A85E</title>
    <g id="Home-Page" stroke="none" stroke-width="1" fill="none" fill-rule="evenodd">
        <g id="Home-Page---Desktop" transform="translate(-617.000000, -3906.000000)" fill="#F14421">
            <g id="UI-Elements/Footer/Default---Desktop" transform="translate(0.000000, 3859.000000)">
                <g id="Logos/ic_logo_italya_compact" transform="translate(617.000000, 47.000000)">
                    <path d="M105.833861,44.341519 C107.415506,44.341519 108.600949,45.5940506 108.600949,47.1756962 C108.600949,48.7573418 107.415506,49.9434177 105.833861,49.9434177 C104.185759,49.9434177 102.999683,48.7573418 102.999683,47.1756962 C102.999683,45.5940506 104.185759,44.341519 105.833861,44.341519 Z M167.612595,37.1603165 L167.612595,41.113481 L161.484747,41.113481 L161.55057,48.6913291 L157.597405,48.6913291 L157.729051,41.113481 L151.53538,41.113481 L151.53538,37.1603165 L167.612595,37.1603165 Z M7.93227843,36.3036709 C9.64556957,36.3036709 10.9626582,37.6213924 10.9626582,39.4656962 C10.9626582,41.1789873 9.64556957,42.4967089 7.93227843,42.4967089 C6.08734173,42.4967089 4.76962021,41.1789873 4.76962021,39.4656962 C4.76962021,37.6213924 6.08734173,36.3036709 7.93227843,36.3036709 Z M105.833861,36.4344937 C107.415506,36.4344937 108.600949,37.6205696 108.600949,39.2686709 C108.600949,40.7832278 107.415506,42.0357595 105.833861,42.0357595 C104.185759,42.0357595 102.999683,40.7832278 102.999683,39.2686709 C102.999683,37.6205696 104.185759,36.4344937 105.833861,36.4344937 Z M58.6721519,37.1596835 L58.6721519,41.2451266 L41.9367088,41.2451266 L41.9367088,37.1596835 L58.6721519,37.1596835 Z M15.5803797,0.000569620253 L15.5803797,1.64867089 C14.5145569,1.64867089 13.7582278,1.71575949 13.3082278,1.84803797 C12.8588607,1.98031646 12.5594936,2.23981013 12.4094936,2.62208861 C12.2601265,3.00436709 12.185443,3.64550633 12.185443,4.54487342 L12.185443,4.54487342 L12.185443,28.5094304 C12.185443,29.4068987 12.2601265,30.0398101 12.4094936,30.4068987 C12.5594936,30.7733544 12.85,31.0138608 13.2835443,31.1315823 C13.7151898,31.2474051 14.4816455,31.3043671 15.5803797,31.3043671 L15.5803797,31.3043671 L15.5803797,32.9531013 L0.151898687,32.9531013 L0.151898687,31.3043671 C1.28354426,31.3043671 2.0746835,31.2391772 2.52405059,31.1056329 C2.97341767,30.9727215 3.263924,30.7315823 3.39746831,30.3809494 C3.5303797,30.0328481 3.59746831,29.4068987 3.59746831,28.5094304 L3.59746831,28.5094304 L3.59746831,4.54487342 C3.59746831,3.64550633 3.513924,3.00436709 3.34810122,2.62208861 C3.18101261,2.23981013 2.87341767,1.98031646 2.42405059,1.84803797 C1.97405059,1.71575949 1.21772147,1.64867089 0.151898687,1.64867089 L0.151898687,1.64867089 L0.151898687,0.000569620253 L15.5803797,0.000569620253 Z M65.4574683,0.000569620253 L65.4574683,8.9385443 L63.4606329,8.9385443 C62.7941772,4.04550633 60.4802531,1.59867089 56.5207594,1.59867089 L56.5207594,1.59867089 L54.6732911,1.59867089 L54.6732911,28.5606962 C54.6732911,29.4252532 54.7397468,30.0328481 54.8732911,30.3815823 C55.0055696,30.7315823 55.2878481,30.9727215 55.7213924,31.1056329 C56.1536708,31.2391772 56.8872151,31.305 57.9188607,31.305 L57.9188607,31.305 L57.9188607,32.9531013 L42.7403797,32.9531013 L42.7403797,31.305 C43.8055696,31.305 44.5536708,31.2391772 44.9872151,31.1056329 C45.4188607,30.9727215 45.702405,30.7315823 45.8359493,30.3815823 C45.9688607,30.0328481 46.0359493,29.4252532 46.0359493,28.5606962 L46.0359493,28.5606962 L46.0359493,1.59867089 L43.7878481,1.59867089 C42.0574683,1.59867089 40.5846835,2.22208861 39.3701265,3.47018987 C38.1549367,4.71829114 37.4486075,6.54234177 37.2479746,8.9385443 L37.2479746,8.9385443 L35.1511392,8.9385443 L35.2011392,0.000569620253 L65.4574683,0.000569620253 Z M83.0318987,0.000189873418 L93.6160759,28.8090506 C93.9160759,29.6406962 94.1825316,30.2153797 94.4160759,30.5318354 C94.6483544,30.8482911 94.9818987,31.0558861 95.4141772,31.1558861 C95.8464556,31.2552532 96.5451898,31.3046203 97.5116455,31.3046203 L97.5116455,31.3046203 L97.5116455,32.9533544 L81.5337974,32.9533544 L81.5337974,31.3046203 L83.9806329,31.3046203 C84.879367,31.3046203 85.3287341,30.9558861 85.3287341,30.2577848 C85.3287341,29.9913291 85.2451898,29.6406962 85.079367,29.2090506 L85.079367,29.2090506 L82.2331645,21.5685443 L71.9977215,21.5685443 L69.1021519,29.3584177 C68.9692405,29.7236076 68.9021519,30.0400633 68.9021519,30.3077848 C68.9021519,30.9729747 69.4021519,31.3046203 70.4002531,31.3046203 L70.4002531,31.3046203 L72.2977215,31.3046203 L72.2977215,32.9533544 L61.9122784,32.9533544 L61.9122784,31.3046203 C62.9116455,31.3046203 63.6679746,31.2470253 64.1844303,31.1318354 C64.7002531,31.0141139 65.1331645,30.7653797 65.4825316,30.3812025 C65.8318987,29.999557 66.1730379,29.391962 66.5053164,28.5603165 L66.5053164,28.5603165 L77.8901265,0.000189873418 L83.0318987,0.000189873418 Z M114.23519,0.000506329114 L114.23519,1.64860759 C113.17,1.64860759 112.413038,1.71632911 111.963671,1.84860759 C111.514937,1.98088608 111.214937,2.23974684 111.064937,2.62202532 C110.914937,3.0043038 110.840886,3.64544304 110.840886,4.54481013 L110.840886,4.54481013 L110.840886,28.3093671 C110.840886,29.2087342 110.898481,29.831519 111.014937,30.1821519 C111.132025,30.5321519 111.397848,30.7732911 111.813671,30.9068354 C112.230127,31.0403797 112.937721,31.1055696 113.936456,31.1055696 C116.797848,31.1055696 119.028861,30.6156962 120.626962,29.6327848 C122.223797,28.6511392 123.28962,26.8618987 123.821899,24.2663291 L123.821899,24.2663291 L125.868734,24.2663291 L125.27,32.953038 L98.8073417,32.953038 L98.8073417,31.3049367 C99.9389873,31.3049367 100.730127,31.2473418 101.179494,31.131519 C101.628861,31.0144304 101.919367,30.7732911 102.052911,30.4074684 C102.18519,30.0403797 102.253544,29.4074684 102.253544,28.51 L102.253544,28.51 L102.253544,4.54481013 C102.253544,3.61379747 102.18519,2.96443038 102.052911,2.59607595 C101.919367,2.23151899 101.620633,1.98088608 101.154177,1.84860759 C100.688354,1.71632911 99.9067088,1.64860759 98.8073417,1.64860759 L98.8073417,1.64860759 L98.8073417,0.000506329114 L114.23519,0.000506329114 Z M159.364937,0 L159.364937,1.64873418 L157.418101,1.64873418 C156.484557,1.64873418 156.02,2.04873418 156.02,2.84683544 C156.02,3.38037975 156.202911,4.01139241 156.569367,4.74493671 L156.569367,4.74493671 L162.610506,17.2753165 L162.660506,17.2753165 L168.351646,5.39303797 C168.683924,4.69367089 168.85038,4.07911392 168.85038,3.54556962 C168.85038,2.91455696 168.652278,2.43924051 168.252278,2.12278481 C167.852278,1.80759494 167.402911,1.64873418 166.904177,1.64873418 L166.904177,1.64873418 L165.306709,1.64873418 L165.306709,0 L175.192152,0 L175.192152,1.64873418 C174.392785,1.64873418 173.744051,1.77405063 173.245316,2.02278481 C172.745949,2.27151899 172.328228,2.63987342 171.997215,3.12151899 C171.663671,3.60316456 171.247215,4.3443038 170.748481,5.34303797 L170.748481,5.34303797 L163.35924,19.8727848 L163.35924,28.4601266 C163.35924,29.3582278 163.441519,29.9987342 163.608608,30.3810127 C163.775063,30.7651899 164.090886,31.0139241 164.556709,31.1316456 C165.023165,31.2481013 165.805443,31.3050633 166.904177,31.3050633 L166.904177,31.3050633 L166.904177,32.9531646 L151.426329,32.9531646 L151.426329,31.3050633 C152.491519,31.3050633 153.249114,31.2392405 153.698481,31.1056962 C154.147848,30.9727848 154.438987,30.7151899 154.572532,30.3316456 C154.70481,29.9493671 154.770633,29.3253165 154.770633,28.4601266 L154.770633,28.4601266 L154.770633,20.4221519 L146.683924,4.14493671 C146.35038,3.44620253 146.051013,2.93860759 145.78519,2.6221519 C145.518101,2.3056962 145.135823,2.06455696 144.636456,1.89746835 C144.137089,1.73227848 143.421266,1.64873418 142.48962,1.64873418 L142.48962,1.64873418 L142.48962,0 L159.364937,0 Z M191.368924,0.000253164557 L201.954367,28.8091139 C202.253101,29.6407595 202.518924,30.215443 202.753101,30.5318987 C202.98538,30.8483544 203.318291,31.0553165 203.751835,31.1559494 C204.183481,31.2553165 204.882848,31.3046835 205.848038,31.3046835 L205.848038,31.3046835 L205.848038,32.9527848 L189.870823,32.9527848 L189.870823,31.3046835 L192.317025,31.3046835 C193.215759,31.3046835 193.665759,30.9559494 193.665759,30.2578481 C193.665759,29.9913924 193.582215,29.6407595 193.415759,29.208481 L193.415759,29.208481 L190.57019,21.5686076 L180.33538,21.5686076 L177.439177,29.358481 C177.305633,29.7236709 177.239177,30.0401266 177.239177,30.3078481 C177.239177,30.973038 177.739177,31.3046835 178.737278,31.3046835 L178.737278,31.3046835 L180.634114,31.3046835 L180.634114,32.9527848 L170.249304,32.9527848 L170.249304,31.3046835 C171.248671,31.3046835 172.005,31.2470886 172.521456,31.1318987 C173.036646,31.0141772 173.469557,30.7648101 173.82019,30.3812658 C174.168291,29.9989873 174.510063,29.3920253 174.842342,28.5603797 L174.842342,28.5603797 L186.226519,0.000253164557 L191.368924,0.000253164557 Z M27.2975316,15.2621519 C28.3956329,15.2621519 29.3355063,15.654557 30.1190506,16.4368354 C30.9000632,17.218481 31.2924683,18.1589873 31.2924683,19.2570886 C31.2924683,20.3558228 30.9000632,21.2881013 30.1190506,22.0520253 C29.3355063,22.8191139 28.3956329,23.2007595 27.2975316,23.2007595 C26.1987974,23.2007595 25.2665189,22.8191139 24.501962,22.0520253 C23.7361392,21.2881013 23.3538607,20.3558228 23.3538607,19.2570886 C23.3538607,18.1267089 23.7431012,17.1773418 24.5272784,16.4108861 C25.3082911,15.6463291 26.2317088,15.2621519 27.2975316,15.2621519 Z M135.583797,13.559557 C136.792025,13.559557 137.826202,13.9918354 138.686329,14.8513291 C139.547721,15.7120886 139.977468,16.745 139.977468,17.9538608 C139.977468,19.1627215 139.547721,20.1874051 138.686329,21.0291772 C137.826202,21.8728481 136.792025,22.2918354 135.583797,22.2918354 C134.37557,22.2918354 133.350886,21.8728481 132.508481,21.0291772 C131.665443,20.1874051 131.245823,19.1627215 131.245823,17.9538608 C131.245823,16.709557 131.674937,15.6652532 132.536329,14.8241139 C133.395823,13.9823418 134.411013,13.559557 135.583797,13.559557 Z M77.1901265,7.88943038 L77.0407594,7.88943038 L72.6977215,19.6217089 L81.5337974,19.6217089 L77.1901265,7.88943038 Z M185.527785,7.88949367 L185.377785,7.88949367 L181.034114,19.6217722 L189.870823,19.6217722 L185.527785,7.88949367 Z" id="Combined-Shape"></path>
                </g>
            </g>
        </g>
    </g>
</svg>