<?xml version="1.0" encoding="UTF-8"?>
<svg width="34px" height="34px" viewBox="0 0 34 34" version="1.1" xmlns="http://www.w3.org/2000/svg" xmlns:xlink="http://www.w3.org/1999/xlink">
    <title>CDDD5059-BF6E-41E4-8843-492194AF953A</title>
    <defs>
        <polygon id="path-1" points="1.60440792e-16 0 34 0 34 19.72 1.60440792e-16 19.72"></polygon>
    </defs>
    <g id="Home-Page" stroke="none" stroke-width="1" fill="none" fill-rule="evenodd">
        <g id="Home-Page---Desktop" transform="translate(-1085.000000, -4077.000000)">
            <g id="UI-Elements/Footer/Default---Desktop" transform="translate(0.000000, 3859.000000)">
                <g id="Group-18" transform="translate(1085.000000, 218.000000)">
                    <g id="Icons/Moonsite-Logo" transform="translate(0.000000, 0.000000)">
                        <g id="logo-only" transform="translate(0.000000, 6.800000)">
                            <mask id="mask-2" fill="white">
                                <use xlink:href="#path-1"></use>
                            </mask>
                            <g id="Clip-2"></g>
                            <path d="M15.3838737,1.46113631 C16.8093964,2.40400096 17.7490419,3.71321221 18.3345422,5.2785754 C18.6969066,6.2474252 18.8710438,7.25106868 18.932868,8.27743816 C18.9976727,9.35326751 19.0390844,10.4318275 19.1504492,11.5032966 C19.2860649,12.8077953 19.6959376,14.0240766 20.5721333,15.0559955 C22.7356167,17.60417 26.8968912,17.2421396 28.6371796,14.519292 C29.2438148,13.5700411 29.5988181,12.5362285 29.7622072,11.4403597 C30.0032265,9.82395111 29.9220287,8.22123976 29.432629,6.65191273 C29.0384268,5.387669 28.382251,4.28691152 27.2698682,3.48489521 C26.5263528,2.94885235 25.6829885,2.69723679 24.7700326,2.655088 C23.1933591,2.58232957 21.8120481,3.08970068 20.5794492,4.02318425 C20.475852,4.10166822 20.3838158,4.19459817 20.2654513,4.29941963 C20.175944,3.7000875 20.2865862,3.15712995 20.5357343,2.64117052 C21.0699779,1.53481963 21.9926884,0.841192233 23.1293222,0.404949972 C24.4484026,-0.101364116 25.8033401,-0.0716353395 27.1568777,0.251505445 C28.6385344,0.605167773 29.9746853,1.23761996 31.0725717,2.29684523 C32.0828025,3.27150866 32.7844544,4.43467455 33.2648221,5.7301445 C33.9074047,7.46291374 34.1014124,9.25179329 33.9525648,11.082161 C33.8379485,12.491305 33.4884999,13.8394499 32.8688134,15.1201215 C31.8913238,17.1401809 30.2640259,18.4361353 28.1180646,19.1239491 C25.4848713,19.9678059 22.8520393,19.9129287 20.2538,18.9767145 C17.9887967,18.1606046 16.5210945,16.5684194 15.6864461,14.3856226 C15.28127,13.3257367 15.1223066,12.2238341 15.0514956,11.1020683 C14.9801427,9.9721986 14.9324536,8.83801277 14.7891156,7.71611482 C14.6249136,6.43125915 14.136101,5.25853601 13.1908556,4.31104688 C12.1906956,3.30841639 10.9669029,2.81478658 9.53022562,2.85543792 C8.14056,2.89472395 6.92972825,3.35677519 5.96628335,4.35887718 C5.22683239,5.12799365 4.75969664,6.04835251 4.49361352,7.05895472 C3.89181045,9.34428281 3.96271176,11.6032294 4.89007376,13.8014852 C5.37495742,14.9509978 6.13604005,15.9020544 7.29245392,16.4724065 C8.70876398,17.1709226 10.1723115,17.1290381 11.632201,16.5898241 C12.3873677,16.3109022 13.0954775,15.9456566 13.6722168,15.3758771 C13.6854938,15.3627524 13.7082545,15.3587445 13.793607,15.3203393 C13.7610015,15.6734291 13.7635304,15.9957331 13.6969645,16.3038994 C13.4616805,17.3936462 12.7607963,18.1608248 11.8296408,18.745799 C10.716129,19.4452841 9.48488491,19.6779613 8.17655257,19.5736684 C6.58443437,19.4468256 5.12124815,18.95346 3.82014142,18.0505861 C2.30294377,16.9977029 1.34175687,15.5375576 0.72473486,13.8505487 C0.12315759,12.2056885 -0.0899076122,10.5064357 0.0337406549,8.7645937 C0.158879204,7.00015781 0.602892996,5.32812336 1.529126,3.79433874 C2.50846724,2.1727331 3.98244671,1.15799088 5.76762421,0.533598497 C6.5917503,0.245383519 8.17722997,-2.20213156e-05 9.7160593,-2.20213156e-05 C11.2548886,-2.20213156e-05 13.4214429,0.319639395 15.3838737,1.46113631" id="Fill-1" fill="#E54118" mask="url(#mask-2)"></path>
                        </g>
                    </g>
                </g>
            </g>
        </g>
    </g>
</svg>